<svg height="472pt" viewBox="0 -36 472 472" width="472pt" xmlns="http://www.w3.org/2000/svg"><path d="m57.710938 48.289062c-7.902344-15.109374-23.621094-24.496093-40.671876-24.289062h-17.039062v-16h17.039062c23.003907-.226562 44.191407 12.464844 54.839844 32.855469.144532.265625.488282 1.015625.601563 1.296875l-7.480469 2.847656zm0 0" fill="#fdbb3d"/><path d="m472 120-257.671875 136c-20.183594 10.644531-41.316406 19.378906-63.128906 26.089844l-.246094.070312c-42.921875 13.207032-89.566406-.878906-118-35.632812-16.144531-19.742188-24.957031-44.464844-24.953125-69.96875v-4.679688c.015625-45.699218 28.167969-86.675781 70.824219-103.078125 22.066406-8.488281 44.902343-14.816406 68.191406-18.890625l284.984375-49.910156zm0 0" fill="#e94f4f"/><path d="m453.6875 65.054688-265.113281 139.921874c-21.277344 11.230469-43.5625 20.445313-66.558594 27.519532l-.261719.078125c-37.3125 11.460937-77.878906 3.476562-108.066406-21.261719 18.792969 57.097656 79.863281 88.613281 137.289062 70.847656l.246094-.070312c21.804688-6.710938 42.929688-15.445313 63.105469-26.089844l257.671875-136zm0 0" fill="#e04646"/><path d="m72.167969 118.832031-10.566407-12.015625c4.175782-3.667968 8.695313-6.925781 13.496094-9.726562l8.101563 13.8125c-3.925781 2.277344-7.621094 4.933594-11.03125 7.929687zm0 0" fill="#f26666"/><path d="m48 171.878906h-16c.074219-18.828125 6.25-37.128906 17.601562-52.152344l12.796876 9.648438c-9.269532 12.238281-14.320313 27.152344-14.398438 42.503906zm0 0" fill="#f26666"/><path d="m231.097656 247.144531-59.898437-201.503906-24.175781 4.230469c-5.328126.9375-10.625 2.015625-15.894532 3.199218l63.71875 212.410157c6.578125-2.984375 13.097656-6.097657 19.488282-9.472657zm0 0" fill="#48add9"/><path d="m432 0-101.425781 17.753906-59.238281 46.246094 104.441406-7.542969-85.351563 61.613281 104.429688-7.550781-85.351563 61.617188 67.695313-2.105469 94.800781-50.03125zm0 0" fill="#fdbb3d"/><path d="m8 400v-40l120-88v-56h80l56-40h72v128h-96l-136 96zm0 0" fill="#4db7e5"/><path d="m78.824219 68.800781c8.9375-3.441406 18.03125-6.402343 27.199219-9.144531l-17.839844-25.953125-44.121094 18.863281 6.746094 32c8.507812-6.617187 17.941406-11.953125 28-15.839844zm0 0" fill="#4db7e5"/><g fill="#419bc2"><path d="m40 360h16v16h-16zm0 0"/><path d="m88 360h16v16h-16zm0 0"/><path d="m152 240h16v16h-16zm0 0"/></g><path d="m392 296h-36.6875l26.34375-26.34375-11.3125-11.3125-26.34375 26.34375v-36.6875h-16v36.6875l-26.34375-26.34375-11.3125 11.3125 26.34375 26.34375h-36.6875v16h36.6875l-26.34375 26.34375 11.3125 11.3125 26.34375-26.34375v36.6875h16v-36.6875l26.34375 26.34375 11.3125-11.3125-26.34375-26.34375h36.6875zm0 0" fill="#fdbb3d"/><path d="m336 208c-53.019531 0-96 42.980469-96 96s42.980469 96 96 96 96-42.980469 96-96-42.980469-96-96-96zm0 152c-30.929688 0-56-25.070312-56-56s25.070312-56 56-56 56 25.070312 56 56-25.070312 56-56 56zm0 0" fill="#e94f4f"/><path d="m360 304c0 13.253906-10.746094 24-24 24s-24-10.746094-24-24 10.746094-24 24-24 24 10.746094 24 24zm0 0" fill="#4db7e5"/><path d="m453.6875 65.054688-90.472656 47.753906 31.640625-2.289063-85.351563 61.617188 67.695313-2.105469 94.800781-50.03125zm0 0" fill="#f0b237"/></svg>